/* XPM */
static char *_3fbab8761394ef1e6e6dfe0903eda38Tfydf9UPD7EqvFGG[] = {
/* columns rows colors chars-per-pixel */
"128 128 34 1 ",
"  c #320A00",
". c #360A00",
"X c #370C00",
"o c #380B00",
"O c #3D0B00",
"+ c #390C00",
"@ c #3F0E00",
"# c #430F00",
"$ c #450F00",
"% c #4A0F00",
"& c #421000",
"* c #471000",
"= c #491100",
"- c #4F1300",
"; c #4F1400",
": c #501300",
"> c #541300",
", c #531400",
"< c #551400",
"1 c #551700",
"2 c #591600",
"3 c #5C1700",
"4 c #5B1800",
"5 c #5C1800",
"6 c #5E1B00",
"7 c #631B00",
"8 c #651B00",
"9 c #631C00",
"0 c #641C01",
"q c #681C00",
"w c #6C1F00",
"e c #6B2000",
"r c #6C2000",
"t c #702200",
/* pixels */
"*<4:####-<5705,--=#@+o@*=287,###*=====##*<55<<<,=$-,,-==-=#o. .+*<75-%==-==;<<-=-<5775<-*==$@+#=-=$$#O@#-=$*--=$$,5752---$@o.  +",
"*<2-####=,2785,--%#@+o@#=<77<$@#*=**=$@#=<55<<<;=*-,<:---=#..  o*275-%*====;<,-%=<5554<-$*=$@+@==$$#@O@#=-%$--=#$,5752--=$@o.  +",
"*,2;####=,2785,=-%#@++@#*<792=@#***$=$##=<552<<;%$-,<::--*@..  o$275-%=$=%=-,,-==<4554,=$$=$@+#*=$$#@@@#=-=*-;=$$,7752--=$@o.  +",
"*<2-####=,3985,--=#O++@#*<77<*@#***$$$#$-27542<;$$=,<<<,-*@..  .$<75-%=%=$=-,,-=-<4554,=$$=$@+@$=###@@@#=-%=-,-$=<5752--=$@+.  o",
"*,<-####=,3985,=-*#O+o@#$,57<*@#*=$$$##$-2754<<;$$%<22<,-$o..  .#<95:$===$=-,;==-<4454:=#$=*@@@$*$##@@O#=-==-,-$=<5752--=$@o.  .",
"$,<-####=,3985,--*#O++@#$,55<$@#**$##$#*-27522<-$$%<222<=#@..  .#<95:===%$=-,:==-<4252:=#$=*#@@#$#@#@@O#=---:,-==,4774,-=#@o.  o",
"$:<-####=,3985,--$#@++@#$,55,$@#**$####*-47542<-#$=,252<=#@.   o$<75:====$=-,:==-<4452,%##=$@@o##$#@OoO#=---,>:-=-<575<-=#@+.  o",
"#-<-####=,3985,==$#@@@@#$;55:#@#*%$###$=,47544<=##=>222<=#@..  +$295:==-=$=-,:==-<4452-$#*=*#Oo##$#@Oo@#=---,<,:--,4752-=#@o.  o",
"#-,=####=,5785,-=$#@+@@#$,24;#@#=*####$=,57542,=#$%:<254-#O..  +$275,==-===,<-==-<2442-$#$=*#@o@$$#@oO@#=---<<<,--:2772,=$@o.  o",
"#-:-####=,5785,-=$#@++@#$;24-#O#==#@##$=,57542,=#$%-<254-$O.  .o$<554-====-:<-==:<2422-$#*=$#@+#$$#@oO@#%--:<22<,,,2575<=$@+.  +",
"#-:-####=:4775,-=*#@+@@#$;<4-#@#==#@@#$=<57542:=##%-:<55,$@.  .+$:255<-===-,<-==,<2<4<;$#*=*#@@#$$#@oO@#=-::<22<,,<<4752-=#+.  o",
"@-:-####=,4775,-=*#@+@##$-<<-#@#==#@@#$-<57522:*##$-,:252=@.  .+#-255<:===-<<-==,22<2<-##*=*#@@##*#OoO@#=-::254<<<<24575:=#@.  .",
"@%:-#@#$-,4774,--$#@+@##$-<<-#@$==#@@#$-<55522:$##$-::<55,$+   o#-252<:==--,<:--,42<2<-##*=*$@@#$#@@@@@#=-:,2552<<<22575<-$@o. .",
"+$--###$-<4774,--$#@+@##$-<<-#@$-=#@@#=-<5542<-$@#$-,<<354,$.  o$,452:--=--,<:=-<44<<<=##*==$@@####@+@@#=-:<45552<<222575:%@o. .",
".@%=$###-<4574,:=$#@@@##$-<<=#@$-=#@@#%-<554<<-$##$:<255552-#. .$<52,:----,<<:=-<44<<<=$$*==$#@#$##@+@@#=-:<45575552222552-#@.  ",
".O%-$#$$-<4554,:-$$@+@##$-<<=#@*-=#@@$=-<552<<-$##$:5777752:$. .=24<,,::-:,<<:--<44<<,=**===$#@#*$#@+@@#=-:<25777797522255<%@o. ",
".@%-$##$-<4554<,-*#@++#$$-<<=#@$-=#@@$=,<44<<<=$##%<797752<-$. .=22<<<,,,,,<<,=-242,,,-*$=-=$#@#$##@+@@#=:,<457777775222255-@o. ",
".@%-*##$-<4552<,-=$@+@#$$-<<=##$-=#@@$=:<44<<<-#@#=27974<:-$@. .-2<<<<<<,,<4<,=;<4<,,,-=*=-=*######@+@@#=:<2455777775222255-#+. ",
"o#=-*##$-<4552<,-=*#@@#$$-<<=##$-=#@@$=,<42<,,=$@#=2705<:=#@o  o-22<<<<<<,<22,-,252,,,-=====$###$#@@+@@#=:<2257877552222257:$@. ",
"+$--*##$:<4552<,-=*#+@#$$-<<=##$--#@#$=,<22,,,=$##=2805,=#Oo.  +:22<<<<<<<242,-,252,------==$###$#@@o@@#=:<2257075322222257<%@. ",
"+$-=$#$=:<5544<,-=*&@@#$$-<<=##*--#@#*-:<2<,:,=$@#%<704,$@o.  .@,22<<<<42<452,-,252:--::,,-==$##$#@@oo@#=:<2278875322555575<=@o ",
"+$==$$$=:<54442<-=**#@$$*-<<=##*;-#@#=-:<<,::-=#@#$,705:$o.   .#;24<<<<442554,-,252-=--:,<:==$##$#@+oo@#=:<2477775357777774:$@o ",
"@%==$$$=,25222<<-=*&@@$**-<<=$#=;-#@#=-:<<::--%###$-507,$O.   o#,24<<<<455552,-<552-=--:<<,-=*##$$#@+@@#=:<257754357000075:=#@. ",
"@%==$$$-,2522<<,-=*&#@***-<<=##=;-#@#=-:,,----%####-<78<=@.   .#:24<<<<455552,,<552-==--<<,-=*##$$#@+@@#=:<25773237qqq005:%#@o  ",
"#%==$$=-<252<<<,-=*&#@$*=-,,=#$=;-#@#=-:::--==$####-<585-#o   .@,432<<,<57752,,<55<-===-;<,-=*#$*$@@oOO#=:<2575227wrwq05,%#@o  X",
"$$==*$=-<452<<<,-=**##*==-<,=#$=,-#@#=-----===*####-<587<=@.   #,552<<,<57872<,<57<-===--,,-=*$$*$@@O@O#=,<2475<2qtwq07<=#@+. .@",
"$$==*$=-<452<<<,-=**##*==-<<=$*=,-$@$-----==$=$####-<5892-#o.  #<552<<,<47075<,<772-====-,,--**$*$@+o@@#=:<2275<7wr0774-#@+.  o#",
"$$==*$=-<54<<<<:-$**#@*==:<<=$$-,-*@$-----=**=$####-<5892-#o.  $2552<<,,<7005<,<772-====-,,,-=***$@@O@@#=:<<275<0r0522:=#@.  .+#",
"#$$=*$=-<55<,,<:-$*#@@*==:<<=$$-<-*#$-----=$$*$#@&#-<5092=#+. .$4552<<,,,40q72<<772-%===-,<,-=***$@@@@@#=:<<254<qw7<>:-$#+.  .o@",
"#$$=*$=-<55<,,<,-$&@@#===:<<=$*-,,*#$---===*$*$####-<5092=#@. .%5752<<,:,20q04<277<-==---<<,;=***$@+@@##=:<<254<qw7<:-=$#+.  ..@",
"@$%=*$=-<54<:,<,-=*###===:<,=$*;<,*#$--====*$=*#@##-<709<=#@  .=5752<<,-:20q05,2772-==--:<<<,=***$#+@@##%-<<<52<ww7<-=$##+.   .+",
"@$%$*$=-<42<:,<<:=**#$===:<,=$*-<,*#*--====***$#@##-<700<=#+. o=5752<<,--20qq5<4772-==--,<<<,-=**$#@@###%-,<<52<ww7<-=$#@+.    o",
"@$%$*$=-<22,,,<<,==*$*==-:<,=$*-<,*#*--===$*$**####-2708<=#@. o-5852<<:--20wq524772-==--,22<,-==$$#@@@##$-::<52<qw7<-=$#@+..  .o",
"@$%$$$=-<22<,,<<,-=***=--:<,=$*-<,*$=--*==$****####-<708<=#@. +-5872<<---<0rq524782-==--,22<<-=*$$#@@#@#$=-:,42<0r7<-=$@+o..  .+",
"#$=$$$=-<24<,<<<,--=*==--,<<=$*-,,*$=--$*%*****#@##-2707<=#@o +-7872<,-=-<8wq724802-==--<452<-==$$#@@@##$=-:,22<7tq2:=$#o..   .+",
"#$=$$$=-<24<,<<<:=-===---,<<=$*;<,=*=--$*=*****#@##-2707<=#@o.@-7872<,-=-<8rq724882-==--<554<,-=$$#@####$=-::<225rr7,-*#o..   .+",
"$%=$#$=-<22<<<2<:====----,<<=$*-<,=$=-=$****$$$#@##-2707<=#@o.@:7072<,-==<8rq724882====,<5552,--%$######$=-:-<222qtq2-=#o.    .+",
"$==$#$=-<22<<<<<,=====---,<<=#*-<,=$=-=$**$***$#@##-2707<=#@+.@,7072<,-==<8qq724082-=--,<5552<,-=$######$%-:-:<220tr5:=$@o.   .+",
"*==$##=-,22<<<<<,-==--,;-,<,=$*-<,=*=-=$*$$**$$#@##-4707<=$#+o@,707<<,-==<7qq925082-=--,277542<,-=##$###$%-:-:<<27rt0<-=$@+.. .@",
"*==$##=-<<2<<<<<<-==-;,;-,<,=$$-<,===-=$$$$**$$#@##:5907<=$#@o#,7072,,-==<7qq925082=*=-,379552<-=$##$$#$#%---:<<25qtq5:-*#@o...#",
"=-=$##*-,<<<,<<<<-==-;,,-,<<=$*:<,===-=$$*$**$$####:5905,=$#@o#,7072,;===<7qq72509<=*=-<580752<-=###$$$##*----,<250rw0<-=$#@o..@",
"=-=$#$$-,<<<,<<<<-==-,,,-,<,-$*;<,-==-=$$*$*$$#####:5905,=$#@O#,7072,-===<7qq72308<=*=-<500052,=$###$$$##=----:<257qr05:==$@o.o#",
"--=$##$-,,<,,<<<<-=--,,,-,<<=$*;<,=====$$$***$&####:5905,=$#@O#,7072,-=*=<7qq72387<=$=-<50q072:*###$*%$#$=:-==:<2270ee7<-=$#@oo#",
"--=*##$-,,,,,<<<<-=-,,,,:,<<-$*;<,-===*#$$***$$####>5775,=$#@+#;7072,-=*=<5qq72377<=$=-<5qq074-$###*==##$-:-==-,<250qr02-==#@oo$",
"-:=*##$-,,,,:<<<<:--;,,,:<<,=$*-<,-===$##$***$$#@@#,5772-%$#@+#;7072,====<70054477<=$%-25qqq85:###$==*##=::-==-,<250qq9<===$@oo$",
",:=$##$-,,,,,<<<<,--,,<,,<<,-$*;<,-==*$#$$$**$##@##<5772-$$#@@#-5002:=%*=<50052475<*#$-<7qqq05,$#$===$#$=::===-,<<58qq9<===$@oo$",
",:=*#$$-,,,,,<<<<:-;,<<,,<<,-$*-<,-==$$##$$**$##@@$<7772-%$#@O#-5002-=$*=<50052255,$$$-27qwq092=#$=*$$$$=::====:,<57qe7<===$#@O$",
",:=*#$$-:,,,,,<,<,:,,<<<,<<,-=%:<,-=$$$###$**$$#@@*<775<-%$#@@#-5002-=$*=<58052255,$#$-<7qqr007;#$=$$$#$-::-=*=-,<49007<===$#@O=",
",:=*##$=-::-,,<<,,,,,<<<,,<,===,<,-*$$$##$***$##@#=<575<-$$#@+@-5892-%$*=<5805<255:$#$-<78qqq07<$$==$#$$=:--===-,<27005<===*#@@=",
",:=*##$=,:-,:,<<,,,,<<<<,,<,-==,<,-*$$$###$**$##@@=2775<-$##@O@-4792-$$*=<5885<<54:$@$-<588qq072$$==$$$$=:--===-,<27005<===*#@@=",
"<:=*##$-,,-::,,,,,,<<<<<,,<,===,<,-$$$###$$*$*#@@@=2772<-$##@O@=4772=$#$=,5785<<54-#@$-<370q077<$#===$#$=-:-===-:,25795,===*@@@=",
"<:=$##$-::-;:,,,,,<<<<<<,,<,=*=,<:-=$$###$$*$$$#@@-2572<-$##@o@=<772=$#$=<5775<,42-#@#=<27q0522:$#%-=$##=-:-====-,25774,===*#@@=",
"<:=$##$----;:,,,,,<<<<<<,<,,=$$,,--=$###$#***$##@@-2552,-$#@@oO%<772=##$=,4775<<<<=#+#=,27q5--,-##$-%$##$-:-====-:<5772:===*#@@=",
",-=*$#=-:--;,,,,,,<<4<<<,<<:*#$,,:-=$###$$$*$$##@@-454<,-$#@@oo$<772=##$-,4774<,<<=@@#=:28q:$$*$##*-%$##$-:-===---<4552-===*@+@=",
",-=*$$=-:--;,,,,,<<<4<<<,,<-$#$,,--=$###$#$*$$#@@#,455<,-$#++oO$,57<=##$-,3775<,<,%@@#%:<78=###@#$=-%$##$-:-====--<2552-=**$@+@=",
",-==#$=-:--;,,,-,<222<<,:,,-##$-<:-=$##@$$$$$$#@@#,555<,-$#+o.o$,57<*##$-,2775,-<,$@@@%-<77$###@#$---$#@#-,--===--,225<-***$@+@=",
",--=$$=-:---,,--,<2222<,-,,-##$-<--=$@@#*$$*$$#@@$<552<;-$#oo.o#:55<*##$-,2575,:,,$@@@$-<77$#####=--=$#@#-<:-=-==-:<22<-*$*#@+@=",
",--=*$=-:--:,,---<242<<,;,:=#O$:<:-=#@@#=$$$$%#@@*<552,;-$#o...#-55<*##$-,2575,-,:$@+@$-<70*##$$$----$#@$-<:----=-:<<<<=*$$#@o@=",
"---==$=-:--:,,---<2422<,-::=#@$-,-==#@##=%$$==#@@=<552,--$@o...#-25<$##$-,2574,;,-#@@+$=:70-##$$%=--=%#@#-<,----==:<<<:=*$##+.+%",
"----=$=-:---,,---<2444,,--:=@@$-,-=*$@##=%$$==#@+=<552,--$@o  .@-25<$##$-,2574,-:-#@@+#=,70-#$$$=--:-$#@$:<<--;-==-<<,-=*$##o.o$",
"---;=$%=----,,---<4444<:=--=#@$-,-=*#O@#=%$$==#@@=2552,--$@o. .@=25,$##$-,2575,---#@@+#=:70,##$$=--:-$#@$:<<-:;-==-,,:-=*$#@o.o$",
"=-,,-$$---=-<,-=-<5554<-==-=#@#-,-=*#O@#=%$#==$@#-2552,-=$@o.  @=<4:####-,2573,--=#@@+#*:50<##$==---=$#@$,2<,:,;==-,:-=%$$#@o..$",
"=-<<-%%--==:<,-=-<5554<-===*@@#--==*#O@#==$$=-$##;275<:-=$@+.  @*<4,####-,2773:--=#@++#$-382$#$==----$@@*,22,:,;=%=,:-=%==#O...#",
"*,54-%=--==-<,-=-<5755<-===*@@#--=%*#O@#==$*--=##-5752---$@+.  +=<5,####-<4775,--=#@++@*-205=##*==---%##=<52<<<,=%=,:-%===#o. .#",
"*<75-%==-==;<<-=-<5575<-*==$@+#=-=$$#O@#-=$$--=$$,5752---$@o.  +*<4:####-<5705,--=#@++@*=287,##$*=====##*<55<<<,=$-,,-==-=#o. .+",
"*275-%*====;<,-%=<4554<-$*=$@+@==$$#@@O#=-%$--=#$,5752--=$@o.  +*<2-####=,2785,--%#@++@#=<77<$@#*=**=$@#=<55<<<;=*-,<:---=#..  o",
"$275-%=$=%=-,,-==<4554,=$$=$@+#*=$$#@@@#=-%*-;=$$,7752--=$@o.  +*,2;####=,2785,==$#@++@#=<792=@#***$=$##=<752<<;=*-,<::--*@..  o",
"$<75-%=%=$=-,,-=-<4554,=$$=$@+@$=###@@@#=-==-,-$=<5752--=$@+.  o*<2-####=,3985,--*#@++@#*<77<*@#***$$$#$-2754<<;$*=,<<<,-*@..  .",
"#<95:$===$=-,;==-<4454:=#$=*@@@$*$##@oO#=-==-,-$=<5752--=$@o.  .*,<-####=,3985,--*#O@+@#$,55<*@#*=$#$$#$-2754<<;$$%<22<,-$o..  .",
"#<95:===%$=-,:==-<4252:=#$=*#@@#$#@#@oO#=---:,-==,4774,-=#@o.  o$,<-####=,3985,--*#@++@#$,55<$@#**$##$#*-27522<-$$%<222<=#@..  .",
"$<75:====$=-,:==-<4452,%#$=$@@+##$#@OOO#=---,>:-=-<575<-=#@+.  o#:<-####=,3985,--$#@++@#$,55,$@#**$####*-47542<-#$=,252<=#@.   o",
"$295:==-=$=-,:==-<4452-$#*=$#@@##$#@OO@#=---,>::--,4752-=#@o.  o#-,-####=,3985,==$#@@@@#$;55:#@#*%$###$=,47544<=##=>222<=#@..  +",
"$275,==-===,<-==-<2442-$#$=*#@@@$##@@@@#=---<<<,--:2772,=$@o.  o#-<-####=,4785,-=$#@+@@#$,25,#@#=*####$%,57542,=#$%:<254-#O..  +",
"$<554-====-:<-==,<2422-$#*=$#@@#$$@@@@@#=--:<22<,,,2575<=$@+.  +#-:-####=,4785,-=$#@++@#$;24-#@#==#@##$=,57542,=#$%-<254-$O.  .o",
"$:255<-===-,<-==,<2<4<-$#*=*#@@#$$@++@@#=-::<22<,,<<4752-=#+.  o#-:-####=:4775,-=*#@+o@#$;24-#@#==#@@#$=<57542:=##%-:<55,$@.  .+",
"#-255<:===-,<-==,42<2<-##*=*#@@##&@@o@@#=-:,254<<<<24575:=#@.  .@-:-####=,4775,-=*#@++##$-<2-#@#==#@@#$-<57522:*##$-,:252=@.  .+",
"#-252<:==--,<:--,42<2<-##*=*#@@@$$#@@@@#=-:,2552<<<22575<-$@o. .+%:-####-,4774,-=$#@+@##$-<<-#@#==#@@#$-<55522:$##$-::<55,$+   o",
"$,452:--=--,<:=-<24<<<=##*==#@@#$$#@+@@#=-:<45552<<222575:%@o. .+$-=$##$-<4754,-=$#@+@##$-<<-#@#-=#@@#=-<5542<-$@#$-,<<354,$.  o",
"$<52,:----,<<:=-<44<<<=$$*==$#O@$##OoO@#=-:<45575552222552-#@.  .#--$@##-<4574,:-$#@@@##$-<<=@@#-=#@@#=;<554<<-$##$:<255552-#. .",
"=24<,,::-:,<<:--<42<<,=$*===$#O@*$#ooO@#=-:<25777797522255<%@o. .@=-##$$-<4554,:-$$@+@##$-<<=@@&-=#@@$=:<552<<-$##$:5777752:$. .",
"=22<<<,,,,,<<,--244,,,-*$=-=$#@#$#@+++@#=:,<457777775222255-@o. .@%-$##$-<4554<:-*#@++#$$-<<=#@$-=#@@$=,<44<<<=$##%<797752<-$. .",
"-2<<<<<<,,<2<,-;252,,,-=*=-=*###$$#++@@#=:>2455777775222255-#+. .@%-*##$-<4552<,-=$@+@#$$-<<=##$-=#@@$=:<44<<<-#@#=27974<:-$@. .",
"-22<<<<<<,<2<,-,252,,,-======###$##@+@@#=:<2257877552222257:$@. o#=-*##$-<4552<,-=*#@@##$-<<=##$-=#@@$=,<42<,,=$##=2705<:=#@o  o",
":24<<<<<<<<22,-,252,-------==$##$##@o@@#=:>2257075322222257<%@. o$--*##*:<4552<,-=*#+@##$-<<=##$-=#@#$=,<22,,,=$##=2805,=#Oo.  +",
",22<<<<22<232,-,252:--::,,-==$#@$#@@+@@#=:<2278875322555575<=@o o$-=$#$=:<5542<,-=*&@@#$$-<<=##*--#@#*-:<2<,,,=$@#%<704,$@o.  .@",
";24<<<<442354,-,252-=--:,<:==$##$##@+@@#=:<2477755357777774:$@o o$==$$$=:<54222<-=**#@$$*-<<=##*;-#@#=-:<<,::-=#@#$,705:$o.   .#",
":24<<<<455552,-<552-=--:<<,-=*##$$@++@@#=:<257754357000075:=#@. @%==$$$=,25222<<-=*&#@$**-<<=$#=,-#@#=-:<<::--%###$-507,$O.   o#",
":24<<<<255552,,<552-==--<<,-=*##$$@++@O#=:<25773237qqq005:%#@o  @%==$$$-,2522<<,-=*&#@***-<<=##=;-#@#=-:,,----%####-<78<=@.   .#",
",432<<,<57752,,<55<-===-,<,-=*##*$@@o@O#=:<2575227wrwq07,%#@o  X#%==$$=-<252<<<,-=*&#@$*=-<<=#$=;-#@#=-:::--==$####=<585-#o   .@",
",552<<,<57872<,<57<-===--,,-=*#$*$@@O@O#=,<247522qtwq07<=#@+. .@$$==*$=-<452<<<,-=**##*==-<<=#$=,-#@$------===*####-<587<=@.   #",
"<552<<,<47073<,<772-====-,,--=*$*$@+@@@#=:<2275<7wr0774-#@+.  o#$$==*$=-<452<<<,=***##*==-<<=$*=,-$#$-----==$=$####=<5892-#o.  #",
"2552<<,,<7005<,<772-====-,,,-=***$@@@@@#=,<<255<0r0522:=#@.  .+#$$==*$=-<54<<<<:-$**#@*==:<<=$$-,-*#$=----=**=$####=<5892-#o.  $",
"2552<<,,,40q72,<772-$===-,<,-=**$$@@@@@#=:<<2542qw7<>:-$#+.  .o@#$$=*$=-<55<,,<:-$*#@@===:<,=$$-<-*#$-----=$$*$##&#-<5092=#+. .$",
"5752<<,-,20q04<2772-==---<<,;=**$$@+@@##=:<<254<qw7<:-=$#+.  ..@#$$=*$=-<55<,,<,-$*@@#===:<<=$*-,,*#$---===*$*$####-<5092=#@. .%",
"5752<<,;:20e05,<772-==--:<<<,=**$$#o@@##%-<<<52<ww7<-=$##+.   .+@$%=*$=-<54<:,<,-=*###===:<,=$*;<;*#$--==%=*$**&###-<709<=#@. .=",
"5754<<,;-20qq5<4772-*=--,<<<,-=*$$#O@###%-,<<52<qw7<-=$#@+.    o@$%$*$=-<42<:,<<-==*#$===:<,=$*-,;*#*--=%==***$####-<700<=#@. o=",
"5852<<:--20wq524772-==--,22<,-==*$#@@@@#$=::<52<qw7<-=$#@+..  .o@$%$*$=-<22,:,<<,==*$*==-:<,=$*-<,*#=--===$*$**#@##-<508<=#@. o-",
"5872<,---<0rq524782-==--,22<<-=***#@@@@#$=-:,42<0r7<-=$@+o..  .+@$%$$$=-<22<:,<<,-=***=--:<,=$*-<,=$=--*==$****#@##-<708<=#@. +-",
"7872<,-=-<8wq724802-==--<442<-==$$##@###$=-:,22<7tq2:=$#o..   .+#$=$$$=-<22<:<<<,--=*=---,<<=$*-<,*$=--$*%*****#@##-2707<=#@o +-",
"7872,,-=-<8rq724882-==--<554<,-=$$######$%-::<225rr7,-*#o..   .+#$=$$$=-<22<,<<<:=-===---,<<=$*;<,=*=--$*=*****#@##-2707<=#@..@-",
"7072<,-==<8rq724882-==-,<5552,--=$######$=-:-<222qtq2-=#o.    .+$%=$#$=-<42<,<<<:====----,<,=$*-<,=$=--$****$$#####-2707<=$#o.@:",
"7072<,-==<8qq724082-=--,<5552<,-=$######$%-:-:<220tr5:=$@o.   .+$==$#$=-<22<<<<<,=====:--,<,=#*-<,=$=-=$**$***#####-2707<=$#+.@,",
"7072<,-==<7qq725082-=--,277542<,-=##$###$%-:-:<<27rt0<-=$@+.. .@*==$##=-,22<<<<<,-====;;-,<,=$*-<,=*=-=$*$$**$$####-4707<=$#+o@,",
"7072<,-==<7qq72507<=*=-,379552<;=$##$$#$#%---:<<25qtq5:-*#@o...#*==$##=-<<2<<<<<<-==-;,;-,<,=$$-<,===-=$$$$**$$####:5907<=$#@o#,",
"7072,;===<7qq72509<=*=-<580752<-=###$$$##*----,<250rw0<-=$#@o..@=-=$##*-,<<<,<<<<-==-;,,-,<<=$*:<,===-=$$*$**$$####:5905,=$#Oo@,",
"7072,-===<7qq72308<=*=-<500052,=$###$$$##=----:<257qr05:==$@o.o#=-=$#$$-,<<<,<<<<-=--,,,-,<,-$*;<,-==-=$$*$*$$#####:5905,=$#Oo@,",
"7072,-=*=<7qq72387<=$=-<50q072:=###$*%$#$=:-==:<2270ee7<-=$#@oo#--=$##$-,<<,,<<<<-=--,,;-,<<=$*;<,=====$$$***$&####:5995:=$#@O#-",
"7072,-=*=<7qq72377<=$=-<5qq074-$###*==##$-:-==-,<250qr02-==#@oo$--=*##$-,<<<,<<<<-=-,,,,:,<<-$*;<,-===*#$$***$$####>5775,%$#@@#-",
"7072,==*=<70052477<=$%,47qqq85:###$==*##=::-==-,<450qq9<===$@o+$-:=*##$-,,<,,<<<,:--,,<,:<<,=$*-<,-===$##$***$##@@#,5772:%$#@@#;",
"5002:=$*=<50052475<*#%,47qqq05,##$%==$#$=::===-,<258qq9<===$@@@%,:=$##$-,,,,,<<<<:--,,<,,<<,-$*;<,-===$#$$$**$##@#$<5772-%$#@@#-",
"5002-=$==<50052255,$#$;25qqq072=##%$$$$$=::====:,<57qq7<===$#@O$,:=*#$$-;,,,,<<<<:;;,<<<,<<,-$*-<,-==%$##$$**$##@@$<7772-$$#@@#-",
"5002-=$==<58052255,$#$;<78qe005-##=$$$#$-::-=*=-,<27007<===$@OO=,:=*#$$=-,,,,,<<<,:,,<<<,<<,-=%:<,-=$$$###$**$$#@@*<775<-%$#@@#-",
"5892-%$*=<5805<255:$#$-<78qqq07<$$==$$$$=:--===-,<27005<===*#@@=,:=*##$--::-,,<<,,:,,<<<,,<,===,<,-*$$$##$***$##@#=<575<-$$#@@@-",
"4792-$$*=<5785<<54:$@$-<588qq082$$==$$$$=:--===-,<27005<===*#@@=,:=*##$=,:-,:,<<,,,,<<<<,,<,-==,<,-*$$$###$**$##@@=2775<=$##@O@-",
"4772=$#$=,5785<<54;#@$-<370q077<$#===$#$=-:-===-:,25795,===*@@@=<:=*##$-,,-::,,,,,,<<<<<,,<,===,<;=*$$###$$*$*#@@@=2772<-$##@O@=",
"<772=$#$=<5775<,42-#@#=<27q0522,$#%-=$##=-:-===--,<5774,===*#@@=<:=$##$-::-;:,,,,,<<<<<<,,<,=*=,<:=*$$###$$*$$$#@@=2572<-$##@o@=",
"<772=##$=,4775<,<<=#+#=,27q5--,-##$--$##$-:-==*=-:<5772:===*#@@=<:=$##$----,:,,,,,<<<<<<,,,,=$$,<--=$###$#***$##@@-2752,-$#@@oO%",
"<772=##$-,4774<,<<=@@#=:27q:$$=$##$-=$##$-:-===---<4552-===*@+@=,-=*$#=-:--;,,,,,,<<4<<<:<,-*#$,,--%$###$$$*$$##@@-455<,-$#@@oo$",
",57<=##$-,3775<,<,%@@#%:<78=###@#$=-=$##$-:-====--<2552-%**$@+@=,-=*$$=-:--;,,,,,<<<4<<<,,<-$#$,,--%$###$#$*$$#@@#,455<,-$#++oO$",
",57<*##$-,2775,:,,$@@@%-<77$###@#$---$#@#-,--===--,225<-***$@+@=,-==#$=-:--;,,,-,<222<<,:,,-##$-<:-=$##@$$$$$$#@@#,555<,-$#+o.o$",
":55<*##$-,2575,:,,$@@@$-<77$#####%--=$#@#-<:-=-==-:<22<-*$*#@+@=,--=$$=-:---,,--,<4422<,-,,-##$,<--=$O@#$$$*$$#@@$<552<;-$#oo.o#",
"-55<*##$-,2575,-,:$@+@$-<70*##$$$---=$#@$-<:----=-:<<<<=*$$#@o@=,--=*$=-:--:,,--;<242<<,;,,=#O$,<:-=#@@#=$$$$%#@@*<452,;-$#o...#",
"-25<$##$-,2574,;,-#@@+$=:70-##$$%=---%#@#-<,----==:<<<:=*$##+.+%---=*$=-:--:,,---<2422<,-:,=#@$-,-==#O@#=%$$==#@@*<552,--$@o...#",
"-25<$##$-,2574,-:-#@@+#=,70-#$$$%--:-$#@$:<<--;-==-<<,-=*$##o.o$----=$=-:---,,---<2444,,--:=@O$-,-=*#O@#=%$$==#@+=<552,--$@o  .@",
"=25,$##$-,2575,---#@@o#=:70,##$$=--:-$#@$:<<::;-==-,,:-=*$#@o.o$==:;=$%-----,,---<4444<:=--=#@#-,-=*#@@#=%$$==#@@=2552,--$@+. .@",
"=24:####-,2575,--=#@@+#*:50<##$==---=$#@$,2<,:,;==-,:-==$$#@o..$=-,,-$$---=-<,-=-<5554<-==-=#@#-,-=*#@@#=%$#==$@#-2552,-=$@o.  @",
"=<4,####-,2775,--=#@++@$-382$#$==----$@@*,22,:,,=%=,:-=%==#O...#=-<<-%%--==-<,-=-<5554<-===*@@#---=*#@@#==$$=-$##;275<:-=$@+.  @",
"=<5,####-<5795,--=#@@+@*-205=##*==---%##=<52<<<,=%=,:-%===#o. .#=,54-%=--==-<,-=-<5755<-===*@@#--=%*#@@#==$*--=##-5752---$@+.  +"
};
