/* XPM */
static char *_076a3e1940b4717b86f92c09a30436478qxVeY2a0nIpLcD[] = {
/* columns rows colors chars-per-pixel */
"128 128 79 1 ",
"  c gray3",
". c #090909",
"X c gray4",
"o c #0B0B0B",
"O c #0C0C0C",
"+ c gray5",
"@ c #0E0E0E",
"# c gray6",
"$ c #101010",
"% c #111111",
"& c gray7",
"* c #131313",
"= c gray8",
"- c #151515",
"; c #161616",
": c gray9",
"> c #181818",
", c #191919",
"< c gray10",
"1 c #1B1B1B",
"2 c gray11",
"3 c #1D1D1D",
"4 c #1E1E1E",
"5 c gray12",
"6 c #202020",
"7 c gray13",
"8 c #222222",
"9 c #232323",
"0 c gray14",
"q c #252525",
"w c gray15",
"e c #272727",
"r c #282828",
"t c gray16",
"y c #2A2A2A",
"u c gray17",
"i c #2C2C2C",
"p c #2D2D2D",
"a c gray18",
"s c #2F2F2F",
"d c gray19",
"f c #313131",
"g c #323232",
"h c gray20",
"j c #343434",
"k c #353535",
"l c gray21",
"z c #373737",
"x c gray22",
"c c #393939",
"v c #3A3A3A",
"b c gray23",
"n c #3C3C3C",
"m c gray24",
"M c #3E3E3E",
"N c #3F3F3F",
"B c gray25",
"V c #414141",
"C c gray26",
"Z c #434343",
"A c #444444",
"S c gray27",
"D c #464646",
"F c gray28",
"G c #484848",
"H c #494949",
"J c gray29",
"K c #4B4B4B",
"L c #4C4C4C",
"P c gray30",
"I c #4E4E4E",
"U c gray31",
"Y c #505050",
"T c #515151",
"R c gray32",
"E c #535353",
"W c gray33",
"Q c #555555",
"! c gray34",
/* pixels */
"55,;;&&&&&;;;;;;;;;;;;;,,5566555,,;;;&&&########&&;;&&&;;;,56eettee666eeee66666666555555566eeeeee665556eetpdjvNNNZZZNNvdpttttee6",
"55;&&#&&#&&;;;,;;;,;;&&&;55655555,,;;&&&oo#oooo#&;,,&;&;;,,,5epjppe5,55ee65666ee6666655,56e6ettttt6556eetdjvZDZDNNNvZvjdee6ee565",
"55;;&#&#&&&;,;,,,;,;;&;&;;,666e55,,;&&&&&&###o&&;,5,;;;;;;;56pjNvje5,;6ette66eee66e5555556e6ttpdtt65666ttpdvvZZNvvjjvvdpe66565,5",
",,&&&;;&&,,,,,;;,,;,;&;;&,5566666,;;;;;;;#&o&#&;,;,,,,,55,,5epvNNvte5556tee6eeeptte665,55566tpdjddteeetepdddvvNNvjdvvjdte6655555",
",;;&&&&&&,,,,,,,5,,;;,;##;,56e66655,;;;;;;&&&&&;55,55,,,6556pdNZNjpe6666tteeepppttte566e66etpdjvdpptddjddpdpddvjvdpjjjdppptet555",
",;&&&&;;;5,5,,,;,;,;,;&&;;,56etete65,,,5;;;;;,,,,,,5,55656ttdvvNNvjdt66eee6ettpdpdppttetteeedvjvjdjpdjjddpptddjjvpdddjddjddjde65",
"5;#&#;&;;,,,555,5,,;&;&;;;566epttee6e6,5,&;;,,,,5,5,56566etdvNZZNvjddtttettppddptppppddjppppjjNNdddjvvNvdppptpjvjjdddddjjvvvjde6",
"5;&;#;;&;,,55,6,,;;;,;;,5556eeeptte6e655,,,,5555,565,5,6epjNNDZNNvjptttteppdjjdpddddjvvNNjjjNNNNjdddddjvjdtttpdjvjdjjjjvvNvNNvp6",
"5;&;&,;,&&;,5555,,;;;;;;,566e656etpptee5,,,,,55566e6e6eetdjNZZZDZvjdddttppjvNvjdpddddvvNNNNNGDZvddpddjvddpptpdvvvjjdjdjvvvjvdjpe",
"6,;;,5,;#&&;,,555,,,;&&;;56565,,56eett55,,5,5556666e66eetdvNDZZZNvjjpdppddvNNNjdpdpdpdjNvNZDGGDvdpdppdpddttttjNZZNvjjjjNjjjjppte",
"6,,5,,,,&&&&;5566e66,;;&5555,&;;,5ete666,,,;,,5666eeeettdjvvZNDZZZvvjddpjvNNNvjdppteeepdjvvNDZNvdppttpdptptppvNDDZZNvNvNvvjjppte",
"e,65e65,##&#&,,56et665;;,565,&&&;,5e6e6655,,555566tt6tttjjvvvNZZZNvvjjddjjNNvvjdpt6566ettpdjNNvdtttptpteeeettjZZDGDDvNNNNNvjddte",
"e66ee66,&#o&&;;566te5,;;,565,;&#&;;66e6e6,,,555665666ettdpjddjNNZZNvvjdjjvNNvjdptt66555eetddvjdteeeeette6e6tddvNZDZNZZZvNNvvjppt",
"ttttp65,&##&##&&,5e65,;&,56,,&&&&&&;65e6656656e6eeetttpttppdddNvNvvdjdvvNNvvddptee5,5,566eppjpt665566eee6eetddddjvjvvvNvNvvjvvdp",
"pptttt6,&;&;&&&;;5555,;,5666,;;#&#&;,66eee5e66eee66666ttppppjjvjvvvdjjNNZZNvdppte66556566tpdptte55566e6666tppppttppddjvjvdjdvjdp",
"pdpjpt65&;&###&&&,,5,;;;,556,;&&&##&;566teeee6e6666eeettetppjjvvvjjdjvZZDZvvdppte6555e6eptppte65,,55566566ttptte66eetpdddddddppp",
"pddvjt6,;&;;,&&;;&;;;,5,5ee6;&&####&;;566tteeeee666e66eeetppjjvjdddvNZDGGZvjjdppee66eetpppppe655,,,5556666ttdtt6665etptpttttpttp",
"pjvjdp65,,;;&;;&;;;&,;;,5565,;&###&#&;5eett6e66ee6666eetttppddjddddjNGIIDZvvjvpdt666eppptpte65,;;;5,66666etppptte5666ettptpptppp",
"ddvNvpe6,;;;,;;;;;;;,;5,565,,&o#&&#&#;,566566566e66e6eteetetppddppvZDIGGDDNvvvdpeeeetddptt6e6,,;;,,56e566eetpppete6eeettdptttttp",
"djNvvdt6,,;;,;,;;;;;,&,,6565;;&&##&##&;,56555556e6ee66etettttppddjNZDDZZNvvvNNjtt5epddpte66e65,,;,,55ee66etepppppeee6teptpdppppp",
"jvZDNdpe65;,;,,;;;;;,,5,5,5,&&&&&&;&;;&;,,,,,,6eee6ee6e66e6eeetpjNZZZNvvdjvNNvdtt6tppptt66665,;;;,556e5666ettttttte66etpppppptpd",
"jZDDNjde55,5,,,,,;;;,;,,655,;&&#;&&;&;;;,,,,5,566e6666teeeee6tpjNNDNNvpppppdddpt666tppt66,6555;;;,,566666eeeetppteteeeetdpdddppj",
"vDGDZjpe665556,;;;;;;;;;5,,;&#;#;&;&;&;;,,,,,56eeeeee6666665etpvNDZZvdttttttppee55e6te65,,,5555;;,,566666eeettteppeteeeetpppppdj",
"NDIDZjptt6655,5,;,;;&&;;5,5,;&#&#&;&;;;,,;55,566t6eetee6e6e5eejZGGGNdpt66666etee565666655,,555,,;;565555ettttetetptptttttttppdjv",
"NDGGDjpte66565,,;;&;&&;;,5,,;##&&&;,&,,,,,565e66eettetee66565edNDDZvjpptetttetet66555555,,,;5,,;;,,56665e6teee6epppppeeee6ttpdjv",
"NDGDZjdtte66655,,;;,;&;;,;;;;&&##&#&&;;,,55666e6eteteeee665,6tpNZDvjpeteptpdppdppt65,55,5,5565,5,,5565eetttteetppppddttteeeppjjv",
"NDGIDvdpt6ee66555,,,;&;&,55,,;;&##&&;;,,5566ttetettttte6655,56pvvvjpptptpdddjvjjdtte65,,,,55655,,556eteeeetpptttppjdjpttet6tpdvv",
"vZGYDZvpptt66656e555;;;;,,5,,,;&;;&,,;,5,5etteeetetptte6565556eddjdttepptpjjvvNNjpt66,,5,,66665656666ettppdpdpppppjjdddpettppjdj",
"vDGIDZjpte65555666,,;,,,655555;;;;,55,56etttptpeetttete6565,,56tppttptppdpdpdjjddpt66,;&;556e6e5566etppppptpdpppddjvvdppptppdpdj",
"jNDZNjdtte65,5,55655,,,,65ee6665655566eetettptpttepppete6555,555etttepppttttpppdptee5,,;,,6e6ee66eeetptppddpddddpjdvjjdpdpdpdddd",
"pdvvjpe655,;;;,,656655666teee66666e6eeettppddpttpttptte6e65,,,,,6e6eetpdpdppppptpee65,;;;;,6666e5566ettpptdpdddptdjvvjjdpttdpptp",
"tepee55,,&&&;;&,;,556e66eeee6e5566e6666ttpddtttttttptttee65,,,,,,,66epdpptpeteettt6e55,,;;,5e6e65666tetetteetttettpddddpttttpttt",
"6565,,&&&&&&;;;&;,556666eeete65655556eeepdpptpeptttepttee65,5,;;;,6eeppdptteteetete55,5,,;,5ee6e556566ee66eeeee6eettpdpteeee6e66",
"55,;;;&&#&&;;&;&#;;5566etttee665,;5,55eeptppteetttptttteee655;,,,,,5tetpptttettteee6555,5,55eeee565,656,,6555555556eepppee655,55",
",&&&&;&;&;;&&;&#&&;;556eett6e6,5;,,,5,5eetpee6etpptteeee56555,,,;;656tttttttteee6e6555555;;55etee55555,,,,,,,,,,5566ettte66555,,",
",5;;&;;&;&;;;&&##&#;;,66pppe6665,;5,55566eetteetette666655555,,&,,55eeeteeeteeteee6566,,,,556tte655;,,5555,,,,,,,5,55ttte55,,,;,",
",5;;&;&;&&&&&&&####&;;56tptte655555656,66eteteeppptee55656555,,5,;55666e66etettet6656,5,;;;,66tee55,;;,55,,,,,,,;,555e6t66,,,;,,",
",,;;;&&;&&;;;&&o####&&,6etptee66555656666eeepptpptt6565655,555,;;,,,55e65666eteette665,,;&;;65ee65,&,;,,,,,,,,,,;,,,,6ete55;5,5,",
",5,,&&&#&#&;#;##oo##&&;5tptte6e5666e65e666epdjdppe666,5,5555,,;,,,,,5666e66656eee6e655;;;&#&55ee55,;;;,,,,,,,,,,;,,,,66ee65,55,,",
";;;;#&&##&&;;;####o&&&,6ettee6665656e6665eepdjjpte65,5,,555,55,;,;,,;,556566e6e66ee666,,&&#&,,555,;;;;;;;;&,;;;;;;,;,5eee656665,",
";&;;;#####;;&&&#o#ooo&;5ete66666556e66656etjvjdpte5,,,,,,,;,;,,;;;,,;5666e666e66ete66,;;;#;&;,5;;;;;;;;;;;&;;,,;;,;,,6ette655,,,",
";;&;##oo##;&;;#&#o&##;,6ete66665656e666e6tdvNvvdte6,,;,,;,5,5,;;;;;;,,566eee666eeee655,;&&&&,,55,&&&;;;;;&;;,;,;;;;;;56ee656655;",
";&&;&&##&;;;,;&##o#o&;,6etteeee5666eee666tdvNNvdpte55,,5,;,;;;;;&;&,;56ee6555666666555;&#&&&&;&&;;&&&&#&&&;&;;,;;;;,;6etee66,,;;",
";;;;,#&#;&,,;;&###&#&;,epppet6666eee66656tpjZvjjpt665,,,,,,;,;,&&&;;;,566e665666e6655,;;&##;&;;;&#&&&&&&#&#&;;,,,;;,,etttee555;,",
",,;,,;;,;,;;;&&#&&#&&;6epppeee66565555565etddjjjdtt56655;,;&;&;;&;&,,,556556e666e565,,;;&#&&##;#&&#####&#&&;&;;,;;;55tttttee55,,",
",5,66555,,;&&##&###&&56epddpteee665,,,5,,55tppjdpppe65,5,,;;&;;;,;,,,55556666eeee65,,,;&&&#&&&&&&####;&#&&;,;;,,;,556eteete666,,",
",566ete65;&&&#&&###&&56tdptptet6555,,,5,55556etpddttee55,,;&;&&&;;;,,,,,,,66ettee655,;,;;;&#&&&&&&&&&#&;;&;,;,,,,566etttpttt6655",
"5,6tpppt6,&&&;&&&&&;;56pdtpte6e55;;,,5,555,5,56ttpppee555,;&&#&&&;;,,55556666e6666666,55;;;&&&&&&&&&&;&;;,,5,,;,,5eetteettee6655",
"55etdjjp6,;&#&&;;&&#,,etpdteee655;,;,,,56555,;56epdppee655,5,,;;;;;;&;;556e6ee6655,55,,,,,;&;;;;;;;;&;&;,,;,;;5,56e6eteeettee665",
"655ejjjde5,,;,,5&&&&;5epptte6565,;,,,,,565555556tpdpppttete655,,,,,,,5555656655,,5,,5,5,,;&;;;;;;;;;;,;,,,;;;,,556e6666656ee6666",
"666tpjjde6,;,,55;,&;,6ettte6566,,55555,5,555,556epjdptttettte66665;;;,;,5655,,,;,;,,,,,;,;;;;;;;,;;&;;,,,,&;,,56ee6e665566ettete",
"e66etpdpe655566,,;&;;,66e6ee555655,,55,,55565566pddpptetpjjjdpt66,55,,55,,,;,,,;;;&&;;&,,,&,,;,,;;&;;&;&,;;;;55tette6e66eeeteete",
"ee65eeteee56eee6,,;,,5665e566565556,55,6556e6666pdjdte6ttdjvjjpte5,,,,,,55,5,;;;&#&#&;;,;;;;,,,,;;#&&&;;&;;;;5ettptete66eeetttee",
"tee5e6ttt6eette66,,5,,55,55,55,,555555,,,566556edjdpt65etdvvvvdt6555,,,;,,;,;;&&#&&&&&&,;,,,;5,,,&&&&&&#&#&,56tppptetet6tttpddpt",
"tee6666e6e6etete65,,5555,5,;,,,55,,,,55,5665666epdjdte6etpjvvjjt6,,,,;,;&;&;&;&&&##&&&;,,,,,,,,,&;##&&#&&&;,5tppdtpttet6e6tppppt",
"tpttee66666eteeeee66e666555,;;,;;;,,,5,5,565656tdddpte666ttdjdpe6,,,,;,;&;&;&#&&#&&##&;,55,,,,;,&;##&#&&&;56etppttptee666eetpttt",
"tptte66555566eee656e6ee66,,;,;,;,,,,;,,,;,55,,6edjvjddeeeeepppe5,;;;;;;&;&;&#;&#&o&#&#&;,5,5,,,;&;&&&#&#&,5etttpttttee6ee66ttttt",
"tpppte655;,,,5666,6,66e6555,,;,;,;&,;,5,,5,,,,5ejvNvvde655566565,;;;,,;;;;&;&&#&oo&##&;;5,55,,;,;&&&#&#&,56etteteetttte66eeetept",
"ttdppe6,;&&;,,,;5,5,6ee6e65665655;,;,;,,55,5;56edvNNvjpe65555555,55;,;;;&;&#;&#&&###&&&;5566565,&;&&##&&;6eee665e6eteee666epettt",
"ttttte6,,,;&&;;,;;;,55eee666e65,,5;;;,5,,,5,,,6pvZDZNvjte5,5,,5e66,,5;;;&&&&#&##&##&&&;,,5665555;&;###&;;5eeee556eeee656e666etee",
"et6ttee5,;;;&&&&;;,55666eeeeeetee65,5,56555,5,edvDGDZvjpe6,,66tpt65,,;;;;&;&#&&&;&;&;&;,5etpe65,,;&&&#o&;,666666556ee6556eeeteee",
"e6eeeeee5,,;&&&;;;,;,6e6eeeeteette55,,55,65,,5tvZGIDDNjpe6666pppp65,;;;;;&&#&##&#&&&;;;56ettee5,;;;&#&;&&,,6555,556ee666666eette",
"655,5eee5;;,;&;&;,5,566eeetetpttte65565eee666epNGIIIDNjdt556ejjjdt6;&,&&&;&&;##&&;&;;;,,6pddt655,&;;;&###&;;,555566655,5,666666e",
"65,,,56655,;;;&;,,,5556eeeeetttdppee5566eeetepjZGIIGDNNdt666epjjde5,,;&;&&&&&&&&;;;;;;,6tdjdpe65;;&&&#&##&#&;5565e6e6,55565e6tee",
"65,;;,5665,;,,,,,,555655eeeeeppppte5556eeetppdvDDGGDDNvpe5,5epddpe5,;&;&;&;;;;;;;,;,;;,5epvjpe65;,;&;&&&####&,,56e6655,56565ette",
"e55;;;,56,;;;&&,,,55,5,55566eetpptee66e6epdddvNZZNZNvvjp6;5,66tete655;;&&;,;;;;;;,;,,;;,epddpte5;&&&&&&#&&&#&&;,66e6,5,5,,66etpe",
"e66;;;;,,5;,,,,55655,,,556666ettpe656666eedpjjvNNvvjdjte6,;,,556e665,;;,;;,555555,5555,;6epppt655,;;;&;;&&&#&&,5566655555566tpdt",
"tee,;&;;;,,&;;5665565,,5,55556ttee665666tpttddjjjptdppe66,55;&&;555,,,;,5555,555555665;,55tppe665,,;&;&&;;;;;&;;556656555556tppt",
"tet55,,,5;;,5,556ee6555566566eeet66666eeettetpdddptettte6e56,;;;5555;,,,5566665,5556565,,,66eeeee5,;,;,,;,&;;;,5565555666e6tpjdt",
"tee65;,,;;,;556e6e66555655655eeee6565etee65eettptptttpteptte6,,55,,,;;,,566e6e65655565,,,556etttee5,,,,,,,,555556555566666tdjjdp",
"ttee655,,,5,666e6e6teette6556ee6565566e6e55556ettttttpppddjdpt65555;,,556ettee6656565555556eettpte6e5555,;,55566666665e6eedjNvjp",
"ptte55,55,6eeee66etettpptteette65,,,556555555eeptppptppdddjpptt6e6,,;;5566ettttee56665,56ettttttttee6e555,,,66e666666555ttjvNNNd",
"dptt665666eeetee66eetttpteteet65,,&;&;55,,;,56etpppptpdjjdjdppee6656556,5556ettte6665,556ettee66e6ttee66655666e66666666etpjvZZNj",
"dpttee6566ttpt6e5e6656ttttteppe5,,&;;,;,;,,,5epdddpppppddpddpteeee6566655,55eettppte655,eepte5,,6etttte56556e56eeeeee66etjvZZZNj",
"dpttte5666ttttee655,5,55656eee55,&&&&&&;&&;;,eppvjvjdjdjvjdppptteeeetee5;,;56etppddpe6556tpe6,;;55eett6e5555666e6666e6tepjjvNNvj",
"dpdteee6e6ette666;,;&&,,,,55555,&&&&&&#;&&&;,epjvvvvjvvjvvjdttteeeepttt6,,;;56epdjjdt6556ept6,&;;,etptte66556e666666e6eetpdvvjvd",
"pppteeeeeepte66,,,;&&&&&;&,555;;####&#;&#&;;,6epdvjjvvNvjjjjptttppddpdp65,;&,,5epjvvpt65ette5,;;;,56eett66666e6ee6ee66ttppddddjd",
"ptet666eete666,,,&&&####;&,5;,;###oo#o###o&;,66ttdddjjjvjjjjdptpddddddp66;,;,,55edjjpe65etde6,,;&;;5etpttte66teee656eeeetttppppp",
"tete6etpppt6655;;;&o##&&&&;;;&##oo###o#o##;;,,5556ttddjjjdjpdpppdvNvjddt66555,,6eepptee6etpte55;;;&56tptpteteteeee6e6e66tettpppp",
"tte6eeptpte56,;;&#&#&#&&&;,,,;&&ooooo#o###;,,,5,566ettpppdpppetpdNZZNvdt65556,555ette66epdjpe5,,;&&,5etdpptdpteee5e665655e6epppt",
"te6ettddtte6,5;,&&o###&;;;;,&### oooo#ooo#&,,,,,,,,6eeppppttt6epdvDDDvjpeeee6665666e6tetdjdpe5,;;&;&56epddpptteee66565e666eetttt",
"e6eeppdjdte6665,&&&&;;,;;,&&&#o#ooo######&;;5555,5666tttttpee6etjZGGDNdtt666e66e6t6e6eepjjjdt65,;;;;;56tdpdteeee66655556666eeptt",
"eeetpdddpeeee5,;&&#&;;;;&;&;#&oo o#o#&###&&,,,556556eetppppptttpvZIIGDNdpettetet66eeeetddvdde6,,;;,;,56eppte6665665555565556eete",
"eetddddpte6e666;&#&;;,,;;&;&&###oo##&#&##&;,,666e6e5etttdppttetpjDYYIDNjdttetteeteetttppdjjdt6555,;;,;556e65,666565,55,6566e6eee",
"tttpppte6eeeee5,&&;;,,;&&&#&#&&#&&##&#&;;&;,,66ee66e6eetppptetedNGIIGDZvjpdtdptttetetetpdddpe5,55,55,555e655,5555,5,,,,55,5,56ee",
"tddddee5665e55;&&&&;,,;;&#;;&#&#&#&;&;&&;;;,566eeetteettdpdppetpNG!!YGZNvdpppdpteeeettpddjdpt665666555,5,65,555555,5,,55,,55666e",
"tddptt6555,6,5;;;#&&;;&&&#&&&;&#&#&&;&;;,,56556etettettetptttetdNGY!IDDvNjjjjjptttete6tppppt655565556,5,66,5,,55555,,5,,,5,,55ee",
"tddptt66,655,5,&&#;#&&;&&&;&,&&;#&;;;&;,,,5656eetptptttee6etettpvG!!IDZNNvjdjdtttee6ee6epttt655,5566665,555,5,,,,,,5;,,;5,,,56ee",
"tdddtt6e6666666,5;;;;&&&&&;;;;&&&;;;;,,;,56ee6ettpddpte6eeeetttpNGGYYDZvvvjvdjdttet66e66ttpe6,,,5,,555,555555,,5555,,,,,,,,,,66e",
"tddtttetttpttt665,;&;&;;;;,,;;,;;;;5,,656eteeettpdjddte6655eeepdvDGIGDNNvvjvvjjpttte6556ete665,;,,;5,55,,,,5,5,;,,,,,,5,,,;,,56e",
"etdpttppppdpddppt65,,;&&;;,,55,,,,,,566e6ettttttddjjddee6666ettdvZYYYIDZNNvvvvjjddte6e6eeett655,,,;,,,5555565,,,,,,,,5,;;;;;,56e",
"eppptppddddddjjppe55,;;;,555555,,5666etettppdjddjdjjjdpt6666ttepdZIYYGGZZZvjjjvjjddpte66etee655,;,;,5565555656,,;;,,,;,,;,,,5556",
"6tpppddjjjdjddddpte5,,&&;,6666655656eetptdpddjjjdjjjjppeeeeeeeetjNI!YGDZZNvvdjjvvvdte666ettte66656656655556e55,,;;5,5,;,;;&;;,,6",
"6ettddjdjjpppptpte655;;;&;556ee666e6tptppddjvjjjdjjjjdtttetteteedNDGDZNvjjdpppdjjvddteetepptptee666teeeeee6665,,;;,,5,5,,;,,,,55",
"56etdjvjjjdppttte665,;,;,;56eee65566eeptddddjdjddddddpt666eee66epjvvvjddppte6tepdvddpttttpttte66eeeee66eeeee65,,,,,,5;,;,,;;,,;5",
"56etdjvvvdppttete666,;,;&,,66ee6655e6eettttpppptttpdpppee5655565eepdtt666e666eetpdjjddtttptte6ee6eeee6e6e6e65,,,,,,,5,,5,,;,;,,,",
"556etdvjjdppteet6ee,5,5,,,;56ete6655eee6eeeteteeee6tete66,55,5,,,5666,56,556ee66etpddpdptppte66656556566e6e65,,,,,,5,,5;,;,;&;,,",
",,6etdddjpppteee65655,5,,5,56eee655,565656666656666e66e565,;,;;,;;;;,,5,65ee6e656etppddtptteee5,,,;5,5556665,,;;;,,;,;,,;,;;;;&,",
",,56tppddppptt66e65555,55,,6tpdpee555565,66655,5,,5,566665,,;;;,;,;,5556566te66555eeeetptppt655,;;;;;,,56655;;,,5,5,,;;,;;&&;&;;",
",556ettpettteeee56,,,55,,556tppdte55,556665565,5,,,5556555,&;;,,,;;;,,666eeett65656666etttte66,,;,;,,,;,,55,,;;;,,,,;;;,;;;;;#;;",
";;,566et66eee6ee666665,5;,55tpdppe665566656,5,55,5,,,5665,;&&,556565565655eee66,,,,55666pppe555,,,,,,;;;,,;;,,,,,55;;&;&&&&&&&;;",
";;,566eee666eee6e66555,5,,,6tddjpe6,,666656565,,,;;,,56555,;,,6ee665,,5,5555e,5,;,;;;,,ette665,,,,,,5,5;5,,5,,,,,,,,&;&;;;;;;;&;",
";;,,55666666e66eete66655,,55eppdte6,65e56565655;;,;,,;565,,;,5eee6555,;;,,55655,;,&,,;,56ete6,5;,;55,,,&&;,,65655,;;;;&&&&&;;&;;",
";;,,,66666665e6e6eetee6655,etpjdpte66e666665,5;;;;;;;,56655,556ee55,;;&&&;,55,;;&&&#&&;5e6e55,,,,,,,,;,;;;,,656,5,;&&&&&&&&&&&&;",
";&;,,56eeeee666eettteee666ettddppe6e66e6555565555,;;,;55e65555,,5,;&;#o&&&,,55,;&&&&&&,566e555;;,;;;,,;&;;556e65,;;&&&&&&;#&&&#&",
";;&;,56eeteeee6eeetpttte665eppddpee6ee6656565,6,,,;;;,666555,5,,,,;;&&#&#;,55,;;&#&##;;5ee65,,,,;,,,,,;;;;56e6e55,,;&#&&&#&&&&&&",
";&,;,56e6e666e6ettppppee6ttpppddppeee66656556555,,;;,,5ee655,,;,;;;####o&;,,5,;&&&#&&&;56e65,,,,,,,;,;&;&;,eee665,;;;;&;&;&&;&&&",
";;;;566etete6eeepppdtpte6ttttpppte6ee6656566565,,;&;,5666,5,;;;;,;&;&&&#&;;,,;;&&##&&;566e665,,;;;,;,;&;&;,5ee66555,&&;;&&####&&",
";&;,,56e6eeeettpptppptpptttpppddtt666656656656655;,,566e665,;,&&&&&&&#&&;&;;;,;##&&o#&,666e65,5,,;,;&;&#&&,,5666655,,,,,&;;&##&&",
";,5,,6e666tetdddddpdppdpdptttptteeee6e6ee6e66666,,565e666655,,;;;;&;,;&;&;&&&&#&#&&&;;56t6e65,;,;;&&;&####&;;556e6555,,;,&##o&&;",
",5,6556eeetpdpddddddjjjjdddpdpdtttetteeetet66e5,,,,5566656555,&&&#;;,5,,&##ooo&&#&#&&;556e65,5,,&;&&#&&&&#&#&,;5e6e665,;,;&&&&&;",
",,,,5666tetpppddjjdvNNNNvvvdddpppptpttpptppe6e55555566655655,;;&#&;;555,,&#&&#;;#&##&;56e665,5,;&&&&#####&#&#&;556eee655,;;###&;",
",556556eettddpdppjjvvvNvvvvjddpppttpttttptte666555655,,5;55,5,;&o#&;6e65;&#&&;&&;&##&;56665,;,;;&&&##&#;&&###&&,6tttet6665,;;;;,",
"56655eeetpetettttpdjvjvvNjjddppppttpttttte6e55565,,;;,;;;;,,,,&&&&;,56e6,;&&&;,;;&&&;,5665,;,;;;##&####&&#;&&#&;5etppttetee655;5",
"6656e6ttettttteeeetddjjvjdddppppppeetttee65,5555555,,;&;&;,;;;;&&#;;66e6,,;,;,5,,&&&&;5565,,;;;&&;&&&&&&#&&&&;&56tpptptptpppte66",
"6ee6e6eeeeee6666eeeeppdjpdddttttte5566566,;,,5556,5;;;&&;;,5,5,;;;&&,556,,;,556,,&&;&,,,,;;;;&&#&&######&#&&;&;5epdpteppdjvjjdte",
"e6eettteet6e6666656eeppdpptttttee65,,,5,55,,,,,65,5;;&;;;,,,,,5,;,,,,55565,5ete65;&;;;,;,;;&;&;&;;;;;;;&;;;;;,,6ppjppttpdvNNNjdt",
"e6eeeee6e66566655665eeppdpttttee55;;&;&;&&#&,556,,;;&;;;&,,556,5,;;;;55655666ee65,;;,&;;;&&&#&#&&#;&&&&#&;;;;,,5tddppeetdvZZZNjt",
"e6666e6555,55,,55,,65eettttee666,,,;;;&&&;;;,,5,,,;&;&&&;;,,,5,5555,,5566e6ttpte66,,;;,&&&#&#&###&&#;&&&;;,,,,,epjjdtettpvNZDNjp",
"e5665655,555,55,,5,,,66eeteee66,,,;&&&##&&;;5,,5;;&;&;;&;;,56655,56565555e5etett65555,,;;&##&######&#&;&&&,,;;,6pjjjpttppjjNNvjt",
"e65565,,,5,,,;,,;5,5555eeet6655;;&;&&&#&&&;;,,;;&;&;;&&;&;;;,,5565eee6e656e66eee65655,,,;&&#&#&####&#&&;&,;;;,,epvNvvddptppjjddt",
"6655655,55,,55,;5,,;,,556ee6655;;;;#&#&#&;5,,;;,;&&&&&&&&;;;,56,66eete6555566ee6655,55,,;;;&#&#&####&&#&&&&,;,5edvZZZvjpeeepppee",
"65,5,55,;,,,;;;5,;5,,;,5656e5655,,;&&&&#;,,5,&&#&&&;;#;&&;,5555566epdpt66,,,,55,,,;,;55,,,;;;,;&;&&&&&;;;,,,;;5tjZDZZZjptee6e6ee",
"665,,,;;,,,,;;;,;,;,,;;,666665,,;;&&&&#o&;,;;&&&&&;&&&#&&;,,,6666eepppt6e555,5,;;,;,;,,,,,;,,,;,;;&;&;;,,,5;,56pvZGIGZvvpee6eeee",
"6,5,,,,,;;&,;;;,,55;,;;,56tee6655,;;#&##&&;;&&#oo#&#;&&&&;;555566eepdddpt65555,,,;;,;,5555,,6566,,,;;,,,,,,,,5edvGIYIDZjptteeppe",
"655,;;;;;;&;,,,;,,,,;;;56etee65,,;;;&##oo#&&#o#o#&&###&&&;,,5666656tdddtt666555;,;;;,556666566665,,;;,,5566556tvNGYY!IDjpttppjpe",
"65;;;;&&&;&;;;&,;,,;,;,,56ete65,5,,;;&##&###&&#o##&&;&&&;,,556566eeeettte66665565,555,5556e66eee65,,,5,5566tepdvDIYYIDZvdptpddde",
"65,;;&&&&&;;;;;;;;;;;;;,55666555,,;;;&&#########&&&&&&&&;;,5566eeeeeeeeee6666666555555556666eeee66555566eetpdjvNZZDDZNvjdpptttte"
};
